<?xml version="1.0" standalone="no"?>
<!DOCTYPE svg PUBLIC "-//W3C//DTD SVG 20010904//EN"
 "http://www.w3.org/TR/2001/REC-SVG-20010904/DTD/svg10.dtd">
<svg version="1.0" xmlns="http://www.w3.org/2000/svg"
 width="5000.000000pt" height="2867.000000pt" viewBox="0 0 5000.000000 2867.000000"
 preserveAspectRatio="xMidYMid meet">

<g transform="translate(0.000000,2867.000000) scale(0.100000,-0.100000)"
fill="#000000" stroke="none">
<path d="M1 24233 c1 -2546 5 -4406 10 -4364 36 307 155 489 729 1111 352 381
569 644 667 808 135 226 172 271 276 338 146 94 464 338 1527 1169 617 483
872 677 1095 837 375 267 748 498 1205 745 1225 662 2267 1070 3228 1263 964
193 1787 169 2537 -76 287 -93 493 -221 695 -430 177 -184 273 -325 401 -589
149 -306 153 -345 143 -1243 l-7 -634 -149 -376 c-311 -784 -454 -1162 -533
-1417 -134 -432 -181 -519 -670 -1230 -786 -1144 -1694 -2413 -2020 -2825
-109 -137 -280 -397 -455 -690 -274 -457 -496 -779 -690 -1000 -51 -58 -128
-145 -172 -195 -161 -183 -234 -316 -399 -723 -55 -136 -115 -274 -134 -307
-50 -90 -122 -152 -262 -225 -140 -73 -212 -130 -243 -195 -20 -41 -23 -69
-31 -293 -21 -604 -41 -2944 -55 -6332 l-7 -1655 -111 -113 c-128 -131 -226
-209 -275 -218 -153 -30 -170 299 -201 3971 -5 633 -15 1886 -21 2785 l-11
1635 -100 210 c-196 412 -200 466 -59 736 119 228 127 295 186 1704 60 1411
198 3621 286 4569 34 378 45 466 55 476 13 13 405 43 415 33 8 -9 79 -405 103
-578 98 -688 112 -1233 93 -3450 -8 -899 -5 -1084 19 -1092 7 -2 34 15 60 38
144 124 444 504 919 1164 341 473 596 809 775 1020 367 433 1494 2056 1917
2760 376 626 742 1390 917 1910 108 320 130 465 115 756 -14 280 -55 495 -138
714 -98 260 -224 410 -426 509 -328 159 -733 176 -1405 57 -882 -156 -1673
-441 -2795 -1006 -1207 -609 -2098 -1225 -2939 -2033 -436 -419 -621 -558
-1216 -917 -528 -318 -672 -429 -1090 -840 -294 -289 -438 -417 -593 -529
-200 -142 -399 -237 -593 -281 -108 -25 -333 -45 -496 -45 l-78 0 0 -9825 0
-9825 11041 0 11041 0 -39 44 c-97 111 -243 403 -625 1251 -673 1493 -1099
2476 -1204 2779 -67 191 -135 356 -236 570 -49 104 -115 250 -147 325 -472
1108 -1254 3447 -1466 4385 -20 87 -44 175 -55 195 -54 107 -156 135 -237 67
-73 -61 -261 -356 -359 -561 -285 -599 -411 -1312 -494 -2800 -41 -739 -61
-880 -133 -941 -94 -80 -260 -124 -389 -104 -122 18 -259 94 -294 161 -40 78
-42 383 -9 1489 88 2965 218 4600 486 6125 120 681 191 913 321 1051 119 126
263 141 553 58 554 -159 859 -564 999 -1324 29 -160 55 -390 77 -703 13 -171
24 -314 25 -316 3 -4 241 121 356 188 348 200 909 583 1873 1277 1322 952
1951 1367 2445 1614 410 205 636 232 740 88 34 -47 39 -99 14 -138 -32 -48
-120 -133 -218 -212 -129 -103 -338 -251 -846 -598 -2172 -1483 -2852 -2030
-3438 -2767 -73 -93 -388 -512 -405 -539 -8 -14 28 -867 48 -1119 116 -1451
550 -3143 1325 -5165 417 -1086 1259 -3126 1495 -3620 97 -204 121 -267 156
-415 26 -106 32 -286 11 -307 -7 -7 -38 -18 -70 -24 -43 -9 3391 -12 13801
-13 l13857 -1 0 11399 0 11399 -28 -14 c-15 -7 -77 -25 -138 -39 -666 -157
-1301 -463 -2094 -1008 -528 -364 -1566 -1160 -1943 -1491 -149 -131 -505
-420 -1325 -1079 -1165 -936 -1575 -1278 -2087 -1737 -226 -204 -636 -615
-806 -810 -252 -289 -504 -559 -1043 -1115 -547 -566 -958 -1027 -1417 -1590
-1058 -1300 -2009 -2757 -2659 -4070 -162 -329 -206 -429 -270 -625 -107 -324
-125 -491 -145 -1345 -20 -823 -22 -841 -135 -1190 -182 -561 -245 -1060 -280
-2200 -23 -743 -38 -851 -136 -963 -86 -98 -173 -132 -418 -162 -89 -11 -181
-23 -206 -26 l-46 -5 -106 158 c-165 246 -240 410 -291 644 -39 176 -50 294
-49 539 1 430 67 918 247 1810 168 836 208 1212 145 1385 -67 187 -173 724
-309 1575 -180 1124 -221 1577 -221 2466 0 729 27 1086 121 1574 85 447 123
520 268 520 79 0 250 -27 349 -56 261 -76 478 -250 626 -503 143 -245 206
-507 330 -1359 l55 -373 -21 -57 c-98 -278 -350 -1034 -393 -1182 -113 -385
-183 -717 -188 -891 -3 -108 7 -155 38 -175 21 -14 27 -14 53 0 97 50 569 925
761 1412 205 518 337 727 936 1484 430 543 608 782 754 1015 70 112 186 346
221 445 49 140 111 225 230 313 145 108 557 505 1670 1612 515 512 1096 1085
1291 1275 1118 1086 1980 1866 3079 2785 487 406 656 560 733 665 59 81 100
122 227 229 197 165 404 319 1145 856 182 131 530 386 775 565 868 636 1132
809 1560 1024 369 185 637 266 875 266 126 0 166 -11 221 -62 l44 -41 0 2712
0 2711 -14592 -1 c-8026 0 -14586 -3 -14578 -6 8 -3 43 -26 77 -50 67 -47 80
-70 69 -128 -19 -99 -246 -548 -691 -1370 -324 -596 -546 -1021 -798 -1525
-379 -755 -547 -1121 -756 -1644 -718 -1788 -1400 -3745 -1986 -5691 -306
-1018 -619 -2163 -734 -2685 -268 -1219 -653 -3617 -805 -5015 -62 -563 -61
-540 -61 -1390 0 -870 11 -1182 61 -1669 39 -384 231 -1277 326 -1517 28 -72
29 -80 18 -132 -17 -86 -80 -205 -144 -274 -47 -51 -68 -65 -128 -87 -143 -53
-259 -43 -313 28 -105 138 -1190 2588 -1340 3026 -31 91 -127 293 -429 905
-407 823 -716 1417 -788 1515 -65 88 -71 -142 -18 -705 48 -508 65 -1089 50
-1647 -15 -556 -35 -779 -91 -1007 -117 -475 -348 -808 -643 -922 -136 -52
-350 -64 -416 -22 -42 27 -83 83 -139 191 -125 244 -172 439 -201 827 -31 419
-35 1893 -9 2985 41 1730 170 2702 434 3267 88 188 151 270 243 317 102 52
494 136 672 143 220 9 344 -33 480 -163 154 -147 164 -192 195 -879 41 -898
97 -1481 200 -2082 171 -997 465 -1778 898 -2387 165 -233 306 -386 343 -372
40 15 103 211 143 444 53 314 78 632 91 1172 17 706 31 928 86 1400 104 887
379 2433 653 3671 523 2362 1271 4797 2214 7209 957 2447 2100 4839 2818 5900
139 205 208 292 267 337 l44 33 -10361 0 -10361 0 1 -4437z m38889 2669 c50
-25 61 -70 28 -114 -70 -91 -372 -212 -559 -225 -77 -5 -88 -4 -106 14 -11 11
-23 37 -27 56 -21 112 81 218 250 261 83 21 103 23 249 24 106 2 136 -1 165
-16z m-947 -229 c-2 -110 -19 -150 -92 -216 -132 -118 -359 -205 -1721 -662
-1012 -339 -1384 -470 -1670 -589 -160 -66 -401 -126 -765 -191 -1160 -207
-1961 -462 -2890 -920 -767 -379 -1477 -842 -2259 -1476 -436 -353 -599 -510
-692 -668 -54 -93 -77 -154 -150 -396 -31 -104 -64 -212 -75 -240 -10 -27 -56
-158 -102 -290 -47 -132 -146 -406 -222 -610 -368 -990 -409 -1184 -435 -2070
-14 -468 -6 -426 -304 -1595 -161 -634 -236 -1075 -240 -1403 -1 -146 0 -160
18 -173 11 -8 34 -14 51 -14 77 0 378 102 875 295 657 256 939 350 1172 390
93 16 302 22 354 9 47 -11 85 -44 108 -93 18 -41 21 -68 24 -247 3 -133 0
-215 -8 -245 -25 -93 -154 -178 -421 -278 -165 -61 -446 -146 -634 -192 -128
-30 -158 -43 -350 -139 -396 -200 -840 -473 -1380 -851 l-271 -189 23 -322
c30 -427 32 -596 9 -665 -9 -29 -55 -105 -101 -170 -109 -152 -190 -317 -259
-523 -136 -412 -205 -897 -251 -1770 -76 -1465 -162 -2107 -359 -2688 -137
-404 -220 -837 -295 -1528 -35 -320 -61 -384 -180 -455 -105 -63 -154 -64
-221 -3 -92 83 -92 82 25 1664 112 1512 158 2193 235 3525 51 895 120 2189
120 2274 l0 34 -122 -6 c-137 -7 -240 -28 -403 -81 -159 -51 -230 -66 -320
-66 -96 0 -147 24 -183 85 -21 37 -23 49 -19 145 7 181 53 258 296 500 186
185 375 339 646 525 110 75 210 147 223 159 19 19 44 129 196 891 242 1212
352 1828 456 2555 252 1765 234 2862 -55 3455 -69 141 -157 251 -271 341 -49
39 -95 74 -102 78 -18 11 -1222 -610 -1767 -912 -600 -332 -1116 -648 -1475
-901 -199 -140 -265 -172 -372 -178 -107 -7 -240 11 -298 40 -25 12 -56 38
-68 57 -42 62 -19 165 84 380 212 441 655 871 1434 1389 380 253 563 356 740
415 41 14 156 44 255 67 316 73 719 200 1105 349 616 237 1192 532 1318 675
82 93 157 282 233 590 22 88 87 395 144 682 57 287 111 535 119 551 65 125
305 214 456 168 139 -41 254 -189 345 -442 47 -129 78 -247 144 -550 32 -145
60 -266 62 -268 2 -2 44 0 93 6 146 16 539 155 1433 509 1743 689 3277 1209
4893 1658 1265 351 2103 543 3575 820 176 33 354 67 395 75 41 8 91 13 110 13
l35 -2 -2 -92z m-28066 -11789 c148 -73 360 -418 446 -724 79 -279 114 -736
104 -1340 -10 -544 -47 -850 -227 -1830 -170 -927 -180 -1046 -255 -3015 -20
-511 -39 -933 -43 -936 -12 -11 -262 -120 -337 -147 -88 -32 -184 -35 -235 -8
-44 24 -144 119 -181 173 -251 364 -337 1221 -243 2423 62 794 432 3688 614
4805 52 321 85 479 111 532 45 92 143 119 246 67z m17858 -1226 c113 -13 198
-39 300 -91 67 -34 102 -62 211 -171 230 -231 229 -229 229 -661 0 -416 -19
-548 -156 -1080 -296 -1151 -390 -1558 -523 -2265 -205 -1090 -374 -2539 -402
-3454 -6 -189 -5 -213 9 -219 61 -23 222 89 775 540 506 412 824 643 1147 833
413 242 756 361 1121 389 140 11 312 16 319 10 8 -9 35 -413 28 -419 -4 -4
-165 -114 -358 -245 -831 -565 -944 -664 -2359 -2049 l-600 -586 -175 0 c-159
0 -239 -6 -398 -26 l-52 -7 -60 58 c-127 121 -256 371 -321 620 -104 401 -49
1407 265 4904 149 1646 156 1744 158 1961 2 225 1 226 -136 369 -250 261 -369
527 -369 826 0 193 48 320 170 455 234 260 655 370 1177 308z m13460 -198
c235 -33 524 -187 726 -389 284 -285 429 -656 470 -1206 21 -274 0 -384 -176
-910 -539 -1617 -1594 -3336 -3144 -5125 -107 -124 -223 -256 -259 -294 -83
-91 -777 -1131 -883 -1324 -28 -51 -194 -98 -379 -109 l-96 -6 -26 31 c-51 61
-74 255 -44 370 47 174 151 320 525 731 l221 243 0 67 c0 36 -7 215 -15 396
-38 855 -83 2241 -91 2830 -9 559 -9 556 127 730 233 297 397 887 473 1695 32
342 39 502 45 1114 l6 629 240 109 c664 303 999 398 1505 428 173 11 671 4
775 -10z m-8430 -71 c372 -76 694 -322 839 -642 234 -514 262 -1134 84 -1832
-102 -400 -277 -835 -510 -1270 -272 -508 -531 -854 -962 -1290 -264 -266
-301 -288 -481 -287 -362 1 -761 169 -1026 432 -217 216 -266 371 -276 872
-13 648 67 1119 324 1903 403 1233 927 1975 1489 2109 165 40 339 42 519 5z"/>
<path d="M40210 12844 c-293 -37 -518 -137 -680 -303 -166 -170 -182 -238
-245 -1036 -77 -967 -155 -1874 -255 -2945 -136 -1451 -156 -1761 -121 -1853
30 -78 116 -23 338 218 478 516 1019 1243 1428 1915 520 856 909 1747 1004
2300 29 166 38 279 57 701 l16 376 -43 41 c-128 117 -294 252 -374 304 -186
122 -425 217 -647 259 -110 20 -391 34 -478 23z"/>
<path d="M32190 12614 c-114 -31 -170 -83 -234 -219 -171 -359 -339 -1368
-387 -2315 -24 -469 4 -799 83 -983 25 -58 40 -63 133 -43 39 8 106 18 150 22
79 7 81 7 126 54 65 66 164 241 369 655 205 412 310 652 386 881 98 297 130
516 121 843 -8 311 -43 479 -168 795 -75 192 -117 274 -152 300 -26 19 -44 21
-200 23 -128 2 -186 -2 -227 -13z"/>
</g>
</svg>
